<?xml version="1.0" encoding="utf-8"?>
<!-- Generator: Adobe Illustrator 18.0.0, SVG Export Plug-In . SVG Version: 6.00 Build 0)  -->
<!DOCTYPE svg PUBLIC "-//W3C//DTD SVG 1.0//EN" "http://www.w3.org/TR/2001/REC-SVG-20010904/DTD/svg10.dtd">
<svg version="1.0" id="Ebene_2" xmlns="http://www.w3.org/2000/svg" xmlns:xlink="http://www.w3.org/1999/xlink" x="0px" y="0px"
	 width="612px" height="607.5px" viewBox="0 0 612 607.5" style="enable-background:new 0 0 612 607.5;" xml:space="preserve">
<style type="text/css">
	.st0{fill:none;stroke:#F43131;stroke-miterlimit:10;}
</style>
<path class="st0" d="M79,34.8H34v45H21v-45v-13h13h45V34.8z M34,122.6H21v58h13V122.6z M34,227.1H21v58h13V227.1z M34,329.6H21v58
	h13V329.6z M79,471.2H34V432H21v58h13v-12.9h45V471.2z M194.5,477v-3.9h-66.6h-3.9h-21.4v3.9h21.4v101h-3v13l58,0v-13l-51.1,0V477
	H194.5z M34,578v-45H21v45v13v0l58,0v-13L34,578z M282.6,475.7v-3.3h-0.7h-16h-41.3v3.3H266V578l-41.3,0v13l58,0v-13h-0.7V475.7
	H282.6z M489.2,591v-13h-58v13H489.2z M576.6,533v45l-45,0v13l58,0v-13v-45H576.6z M576.6,284.6h13v-58h-13V284.6z M586.4,433.2
	h-11.6h-22.5v8.7h22.5v29.3H385.9h-31.7V578h-26.3v13h26.3l0,0h32.1V476.5h188.5v14.8h13v-58H586.4z M576.6,180.1h13v-58h-13V180.1z
	 M576.6,22.1h-45v13h45v45h13v-45v-13H576.6z M483.5,141l12.7-0.1l-0.6-63.3l-12.1,0.1V35.1h6.4v-13h-58v13h46.9V141h1.9l0,0l0.7,0
	L483.5,141L483.5,141z M284.2,22.1h-58v13h46.3v78h3.3v-78h8.4V22.1z M386.2,22.1h-58v13h48v86.4l-8,0l0.2,12.5l-18,0.5v5.9h52.2
	V69.5l-23.2,0V35.1h6.7V22.1z M121.2,22.1v13h58v-13H121.2z M150.2,226.6v10.7h37.8v85.3h20.2v-95.9H150.2z M121,226.6l0.2,95.9h9.2
	v-95.9H121z M589.6,591v-13h-58v13H589.6z M262.5,416.7h3.4v-49.1h-3.4V416.7z M383.8,330.7h-9.7H262.5v13.1h3.4v-4.3h108.2v93.6
	H262.5v0v13.1h3.4v-4.3h49.6v99.5h3.4v-99.5h55.1h9.7h0.4V330.7H383.8z M549.7,330.6v3.4H569v46.4h-43.7v-49.8h-0.4h-67.8v13.1h3.4
	v-4.3h54.7v33.2h-54.7v-8.1h-3.4v29.8h3.4v-12.8h54.7v51.6h-54.7V422h-3.4v11.1v0v8.7v4.4h3.4v-4.3h64.3h0.4v-53.5l64.3,0.3v-58.1
	H549.7z M482,172.6h-4.7h-35.9V69.1h-4.7v103.5h-6.9h-4.7h-44.4h-4.7v4.7V237v4.7h4.7h11.3V237h-11.3v-59.7h44.4V237h-4.6v4.7h4.6
	v32h-46v4.7h46h4.7h0.2v-4.7h-0.2v-32h6.7V237h-6.7v-59.7h47.6V237h-9.9v4.7h9.9h4.1h0.7v-64.4h13.8v-4.7H482z M276.3,135.6v-8.5
	h-0.9h-3.8h-7v4.7h7v8h0v0.5h42.6v-4.7H276.3z"/>
</svg>
